<svg xmlns="http://www.w3.org/2000/svg" xmlns:xlink="http://www.w3.org/1999/xlink" id="Layer_2" data-name="Layer 2" viewBox="0 0 1930.34 530.35" width="1930.34"  height="530.35" ><link xmlns="" type="text/css" rel="stylesheet" id="dark-mode-custom-link"/><link xmlns="" type="text/css" rel="stylesheet" id="dark-mode-general-link"/><style xmlns="" lang="en" type="text/css" id="dark-mode-custom-style"/><style xmlns="" lang="en" type="text/css" id="dark-mode-native-style"/><style xmlns="" lang="en" type="text/css" id="dark-mode-native-sheet"/><script xmlns=""/>
  <defs>
    <style>
      .cls-1 {
        fill: url(#linear-gradient-2);
      }

      .cls-2 {
        fill: #fff;
      }

      .cls-3 {
        fill: none;
        stroke: #fff;
        stroke-miterlimit: 10;
        stroke-width: .5px;
      }

      .cls-4 {
        fill: #0b0b87;
      }

      .cls-5 {
        fill: #000054;
      }

      .cls-6 {
        fill: url(#linear-gradient);
      }
    </style>
    <linearGradient id="linear-gradient" x1="-11.65" y1="28.14" x2="405.34" y2="385.19" gradientUnits="userSpaceOnUse">
      <stop offset="0" stop-color="#00f5fd"/>
      <stop offset="1" stop-color="#00b5f0"/>
    </linearGradient>
    <linearGradient id="linear-gradient-2" x1="1308.81" y1="67.66" x2="1374.7" y2="67.66" xlink:href="#linear-gradient"/>
  </defs>
  <g id="Layer_1-2" data-name="Layer 1">
    <g>
      <g>
        <rect class="cls-6" width="530.35" height="530.35" rx="109.75" ry="109.75"/>
        <path class="cls-5" d="m138.48,283.73c.11,14.87,8.23,29.62,21.04,37.27,14.63,8.74,34.49,7.71,48.14-2.48,7.9-5.9,13.68-14.56,16.1-24.12,1.98-7.83,1.75-16.1,3.9-23.88,3.79-13.73,15.42-24.99,29.26-28.36,7.16-1.74,14.68-1.49,21.87-3.11,10.61-2.4,20.2-9.04,26.2-18.12,4.12-6.25,6.51-13.61,6.95-21.08.41-6.81-.81-13.74-3.62-19.96-2.61-5.78-6.53-10.96-11.29-15.15s-10.38-7.43-16.45-9.3c-3.36-1.04-6.85-1.65-10.37-1.77-19.72-.69-38.92,13.88-43.55,33.06-1.83,7.58-1.59,15.55-3.58,23.09-3.59,13.58-14.85,24.85-28.43,28.45-8.18,2.17-16.82,1.71-24.95,4.07-6.19,1.8-11.91,5.11-16.69,9.42-4.81,4.34-8.71,9.72-11.25,15.69-1.36,3.19-2.33,6.54-2.85,9.97-.31,2.09-.46,4.19-.44,6.3Z"/>
        <path class="cls-5" d="m167.5,444.74s-.07,0-.11,0c-13.32-.06-24.08-10.91-24.02-24.23l.27-62.91c.06-13.29,10.85-24.02,24.12-24.02.04,0,.07,0,.11,0,13.32.06,24.08,10.91,24.02,24.23l-.27,62.91c-.06,13.29-10.85,24.02-24.12,24.02Z"/>
        <path class="cls-5" d="m307.39,311.8c-10.01,3.16-20.58,5.18-31.56,5.84-.86.05-1.72.1-2.58.13-.77.03-1.56.1-2.32.09-3.09-.06-6.21.3-9.27-.27-1.12-.21-2.22-.54-3.27-1-1.26-.54-2.47-1.27-3.61-2.02-1.2-.79-2.34-1.68-3.39-2.67-1.64-1.53-3.07-3.29-4.24-5.2-1.19-1.94-2.11-4.03-2.74-6.22-.64-2.25-.97-4.59-.97-6.93,0-6.35,2.45-12.56,6.8-17.2,0-.59,2.2-2.02,2.67-2.37.93-.69,1.92-1.31,2.95-1.85,2.11-1.11,4.37-1.91,6.67-2.5.21-.05.43-.09.64-.14-3.54.46-7.03,1.68-10.2,3.79-11.11,7.36-14.15,22.33-6.8,33.44l84.24,127.22c4.64,7.01,12.32,10.81,20.14,10.81,4.57,0,9.2-1.3,13.3-4.01,11.11-7.36,14.15-22.33,6.8-33.44l-63.23-95.49Z"/>
        <path class="cls-2" d="m286.38,280.07l21.01,31.73c49.1-15.48,84.48-58.89,84.48-110.05,0-64.14-55.57-116.14-124.11-116.14s-123.88,51.77-124.11,115.73c0,.07,0,.13,0,.2v.07c.04,15.78,12.84,28.56,28.63,28.56,4.4,0,8.78-1.02,12.72-2.98,3.82-1.9,7.21-4.67,9.84-8.03,2.66-3.41,4.54-7.41,5.44-11.64.47-2.22.72-4.49.83-6.76.43-8.85,2.1-17.21,5.94-25.23,1.85-3.85,4.07-7.52,6.64-10.94,2.55-3.4,5.43-6.55,8.59-9.39,3.17-2.85,6.61-5.38,10.27-7.56,3.7-2.2,7.61-4.03,11.67-5.45,4.15-1.45,8.44-2.48,12.79-3.06,2.89-.39,5.8-.58,8.72-.58,35.91,0,65.02,29.11,65.02,65.02,0,6.63-1,13.25-3,19.57-1.93,6.13-4.79,11.97-8.44,17.26-3.61,5.24-7.98,9.94-12.94,13.92-8.37,6.71-18.5,11.45-29.19,13.03-4.68.69-9.42,1.02-14.02,2.13,8.84-1.15,17.98,2.65,23.23,10.58Z"/>
        <path class="cls-4" d="m255.83,272.13c-1.03.54-2.02,1.16-2.95,1.85-.46.35-2.67,1.78-2.67,2.37-4.35,4.64-6.8,10.84-6.8,17.2,0,2.34.32,4.68.97,6.93.62,2.18,1.55,4.28,2.74,6.22,1.17,1.91,2.6,3.66,4.24,5.2,1.05.99,2.19,1.88,3.39,2.67,1.14.75,2.35,1.48,3.61,2.02,1.05.45,2.15.79,3.27,1,3.06.57,6.18.21,9.27.27.77.02,1.55-.05,2.32-.09.86-.04,1.72-.08,2.58-.13,10.97-.66,21.54-2.68,31.56-5.84l-21.01-31.73c-5.25-7.94-14.39-11.73-23.23-10.58-.21.05-.43.08-.64.14-2.3.6-4.56,1.39-6.67,2.5Z"/>
      </g>
      <g>
        <g>
          <path class="cls-2" d="m797.3,297.62l-47.39-86.01h-13.31v86.01h-55.5V69.77h93.15c17.96,0,33.27,3.14,45.93,9.41,12.66,6.28,22.12,14.88,28.4,25.8,6.27,10.93,9.41,23.1,9.41,36.52,0,15.15-4.28,28.67-12.82,40.57-8.55,11.9-21.15,20.34-37.81,25.32l52.58,90.23h-62.64Zm-60.69-125.28h34.4c10.17,0,17.8-2.49,22.88-7.46,5.08-4.98,7.63-12.01,7.63-21.1s-2.55-15.47-7.63-20.45c-5.09-4.97-12.71-7.46-22.88-7.46h-34.4v56.48Z"/>
          <path class="cls-2" d="m885.74,157.73c7.03-14.06,16.6-24.88,28.73-32.45,12.11-7.57,25.64-11.36,40.57-11.36,12.76,0,23.96,2.6,33.59,7.79,9.62,5.19,17.04,12.01,22.23,20.45v-25.64h55.5v181.11h-55.5v-25.64c-5.41,8.44-12.93,15.26-22.56,20.45-9.63,5.19-20.83,7.79-33.59,7.79-14.72,0-28.13-3.84-40.25-11.52-12.12-7.68-21.69-18.61-28.73-32.78-7.03-14.17-10.55-30.56-10.55-49.17s3.52-34.94,10.55-49.01Zm113.6,16.55c-7.68-8-17.04-12.01-28.08-12.01s-20.4,3.95-28.07,11.85c-7.69,7.9-11.52,18.78-11.52,32.62s3.84,24.83,11.52,32.94c7.68,8.11,17.04,12.17,28.07,12.17s20.39-4,28.08-12.01c7.68-8,11.52-18.93,11.52-32.78s-3.84-24.77-11.52-32.78Z"/>
          <path class="cls-2" d="m1099.63,157.73c7.03-14.06,16.6-24.88,28.73-32.45,12.11-7.57,25.64-11.36,40.57-11.36,11.9,0,22.77,2.49,32.62,7.47,9.84,4.98,17.58,11.68,23.21,20.12V57.44h55.5v240.18h-55.5v-25.97c-5.19,8.66-12.61,15.58-22.23,20.77-9.63,5.19-20.83,7.79-33.59,7.79-14.93,0-28.46-3.84-40.57-11.52-12.12-7.68-21.69-18.61-28.73-32.78-7.03-14.17-10.55-30.56-10.55-49.17s3.52-34.94,10.55-49.01Zm113.6,16.55c-7.68-8-17.04-12.01-28.08-12.01s-20.4,3.95-28.07,11.85c-7.69,7.9-11.52,18.78-11.52,32.62s3.84,24.83,11.52,32.94c7.68,8.11,17.04,12.17,28.07,12.17s20.39-4,28.08-12.01c7.68-8,11.52-18.93,11.52-32.78s-3.84-24.77-11.52-32.78Z"/>
          <path class="cls-1" d="m1318.06,89.08c-6.17-5.73-9.25-12.82-9.25-21.26s3.09-15.85,9.25-21.58c6.17-5.73,14.12-8.6,23.85-8.6s17.37,2.87,23.53,8.6c6.17,5.74,9.25,12.93,9.25,21.58s-3.08,15.53-9.25,21.26c-6.17,5.74-14.01,8.61-23.53,8.61s-17.69-2.87-23.85-8.61Z"/>
          <rect class="cls-2" x="1314" y="116.51" width="55.5" height="181.11"/>
          <path class="cls-2" d="m1402.77,157.73c7.03-14.06,16.6-24.88,28.73-32.45,12.11-7.57,25.64-11.36,40.57-11.36,12.76,0,23.96,2.6,33.59,7.79,9.62,5.19,17.04,12.01,22.23,20.45v-25.64h55.5v181.11h-55.5v-25.64c-5.41,8.44-12.93,15.26-22.56,20.45-9.63,5.19-20.83,7.79-33.59,7.79-14.72,0-28.13-3.84-40.25-11.52-12.12-7.68-21.69-18.61-28.73-32.78-7.03-14.17-10.55-30.56-10.55-49.17s3.52-34.94,10.55-49.01Zm113.6,16.55c-7.68-8-17.04-12.01-28.08-12.01s-20.4,3.95-28.07,11.85c-7.69,7.9-11.52,18.78-11.52,32.62s3.84,24.83,11.52,32.94c7.68,8.11,17.04,12.17,28.07,12.17s20.39-4,28.08-12.01c7.68-8,11.52-18.93,11.52-32.78s-3.84-24.77-11.52-32.78Z"/>
          <path class="cls-2" d="m1778.29,135.17c12.65,13.74,18.99,32.62,18.99,56.64v105.81h-55.18v-98.34c0-12.12-3.13-21.53-9.41-28.24-6.28-6.71-14.72-10.06-25.31-10.06s-19.04,3.36-25.32,10.06c-6.28,6.71-9.41,16.12-9.41,28.24v98.34h-55.5V116.51h55.5v24.02c5.62-8.01,13.2-14.33,22.72-18.99,9.52-4.65,20.23-6.98,32.14-6.98,21.2,0,38.13,6.87,50.79,20.61Z"/>
          <path class="cls-2" d="m1930.34,250.56v47.06h-28.24c-20.12,0-35.82-4.92-47.06-14.77-11.25-9.84-16.88-25.91-16.88-48.19v-72.05h-22.07v-46.09h22.07v-44.15h55.51v44.15h36.35v46.09h-36.35v72.7c0,5.41,1.3,9.31,3.89,11.68,2.6,2.38,6.92,3.57,12.98,3.57h19.8Z"/>
        </g>
        <g>
          <path class="cls-2" d="m687.93,410.47c4.55-8.24,10.76-14.66,18.65-19.25,7.88-4.6,16.67-6.9,26.38-6.9,11.83,0,21.96,2.8,30.4,8.42,8.44,5.61,14.58,13.52,18.42,23.72h-12.43c-3.03-7.18-7.66-12.78-13.87-16.83-6.22-4.04-13.72-6.06-22.51-6.06-7.78,0-14.78,1.82-21,5.46-6.22,3.64-11.09,8.87-14.63,15.69-3.54,6.82-5.31,14.73-5.31,23.72s1.77,16.89,5.31,23.65c3.54,6.77,8.41,11.98,14.63,15.62,6.22,3.64,13.22,5.45,21,5.45,8.79,0,16.3-1.99,22.51-5.99,6.22-3.99,10.84-9.52,13.87-16.6h12.43c-3.84,10.11-10.01,17.94-18.5,23.5-8.49,5.56-18.6,8.34-30.32,8.34-9.7,0-18.5-2.3-26.38-6.9-7.89-4.6-14.1-10.99-18.65-19.18-4.55-8.19-6.82-17.48-6.82-27.9s2.27-19.73,6.82-27.97Z"/>
          <path class="cls-2" d="m896.92,487.48c-6.22-3.48-11.12-8.44-14.71-14.86-3.59-6.41-5.38-13.92-5.38-22.51s1.82-16.09,5.46-22.51c3.64-6.41,8.59-11.37,14.86-14.86,6.27-3.49,13.29-5.23,21.07-5.23s14.83,1.74,21.15,5.23c6.31,3.49,11.27,8.44,14.86,14.86,3.59,6.42,5.38,13.92,5.38,22.51s-1.82,15.97-5.46,22.44c-3.64,6.47-8.64,11.45-15.01,14.93-6.37,3.49-13.44,5.23-21.22,5.23s-14.78-1.74-21-5.23Zm36.16-7.73c4.65-2.47,8.41-6.22,11.29-11.21,2.88-5.01,4.32-11.14,4.32-18.42s-1.41-13.42-4.24-18.42c-2.83-5.01-6.57-8.74-11.22-11.22-4.65-2.48-9.7-3.71-15.16-3.71s-10.51,1.24-15.16,3.71c-4.65,2.48-8.36,6.22-11.14,11.22-2.78,5-4.17,11.14-4.17,18.42s1.39,13.42,4.17,18.42c2.78,5,6.47,8.74,11.06,11.21,4.6,2.48,9.63,3.72,15.09,3.72s10.51-1.24,15.16-3.72Z"/>
          <path class="cls-2" d="m1079.15,411.46c4.8-2.83,10.69-4.25,17.66-4.25v11.07h-2.88c-7.68,0-13.85,2.07-18.5,6.22-4.65,4.14-6.97,11.06-6.97,20.77v46.24h-10.61v-82.78h10.61v14.71c2.32-5.16,5.89-9.15,10.69-11.98Z"/>
          <path class="cls-2" d="m1205.36,417.67v51.39c0,5.05.96,8.54,2.88,10.46,1.92,1.92,5.31,2.88,10.16,2.88h9.7v9.1h-11.37c-7.48,0-13.04-1.74-16.68-5.23-3.64-3.49-5.46-9.22-5.46-17.21v-51.39h-11.52v-8.95h11.52v-20.77h10.76v20.77h22.74v8.95h-22.74Z"/>
          <path class="cls-2" d="m1398.96,454.21h-68.68c.31,6.27,1.82,11.62,4.55,16.07,2.73,4.45,6.32,7.81,10.77,10.08,4.44,2.27,9.29,3.41,14.55,3.41,6.87,0,12.66-1.66,17.36-5,4.7-3.34,7.81-7.84,9.33-13.49h11.21c-2.02,8.08-6.34,14.68-12.96,19.78-6.62,5.11-14.93,7.66-24.94,7.66-7.78,0-14.75-1.74-20.92-5.23-6.16-3.48-10.99-8.44-14.48-14.86-3.49-6.41-5.23-13.92-5.23-22.51s1.72-16.12,5.15-22.59c3.44-6.47,8.24-11.42,14.4-14.86,6.16-3.43,13.19-5.15,21.07-5.15s14.78,1.72,20.69,5.15c5.91,3.44,10.46,8.06,13.65,13.87,3.18,5.81,4.78,12.26,4.78,19.33,0,3.64-.1,6.42-.31,8.34Zm-14.17-24.41c-2.58-4.34-6.09-7.63-10.54-9.85-4.45-2.22-9.3-3.33-14.56-3.33-7.88,0-14.61,2.53-20.16,7.58-5.56,5.06-8.64,12.18-9.25,21.38h58.22c.1-6.16-1.13-11.42-3.71-15.77Z"/>
          <path class="cls-2" d="m1540.86,491.5l-21.37-33.36-20.62,33.36h-11.22l26.69-41.39-26.38-41.39h11.98l21.07,32.9,20.46-32.9h11.07l-26.38,40.94,26.69,41.84h-11.98Z"/>
        </g>
        <line class="cls-3" x1="681.11" y1="349.18" x2="1930.34" y2="349.18"/>
      </g>
    </g>
  </g>
</svg>